<?xml version="1.0" ?><svg height="512" id="svg2" version="1.1" width="512" xmlns="http://www.w3.org/2000/svg" xmlns:cc="http://creativecommons.org/ns#" xmlns:dc="http://purl.org/dc/elements/1.1/" xmlns:inkscape="http://www.inkscape.org/namespaces/inkscape" xmlns:rdf="http://www.w3.org/1999/02/22-rdf-syntax-ns#" xmlns:sodipodi="http://sodipodi.sourceforge.net/DTD/sodipodi-0.dtd" xmlns:svg="http://www.w3.org/2000/svg"><defs id="defs4"/><g id="layer1" transform="translate(0,-540.36218)"><g id="g4305"><g id="g4345" transform="translate(28,-40.00001)"><g id="text2994" style="font-size:550px;font-style:normal;font-variant:normal;font-weight:normal;font-stretch:normal;text-align:start;line-height:125%;letter-spacing:0px;word-spacing:0px;writing-mode:lr-tb;text-anchor:start;fill:#222222;fill-opacity:1;stroke:none;font-family:Ubuntu;-inkscape-font-specification:Ubuntu"><path d="m 83,616.36218 a 10.001,10.001 0 0 0 -10,10 l 0,420.00002 a 10.001,10.001 0 0 0 10,10 l 10,0 280,0 a 10.001,10.001 0 0 0 1.9375,-0.1875 c 0.3201,-0.065 0.65642,-0.1538 0.96875,-0.25 a 10.001,10.001 0 0 0 1.8125,-0.75 c 0.021,-0.011 0.0415,-0.02 0.0625,-0.031 a 10.001,10.001 0 0 0 0.75,-0.4687 10.001,10.001 0 0 0 0.8125,-0.5938 c 0.029,-0.024 0.065,-0.038 0.0937,-0.062 a 10.001,10.001 0 0 0 0.625,-0.5937 10.001,10.001 0 0 0 0.65625,-0.7188 10.001,10.001 0 0 0 0.59375,-0.8125 c 0.0295,-0.044 0.0649,-0.08 0.0937,-0.125 a 10.001,10.001 0 0 0 0.40625,-0.6875 10.001,10.001 0 0 0 0.40625,-0.9062 10.001,10.001 0 0 0 0.25,-0.6875 10.001,10.001 0 0 0 0.125,-0.3438 c 0.009,-0.031 0.0224,-0.063 0.0312,-0.094 a 10.001,10.001 0 0 0 0.21875,-0.9375 c 0.002,-0.01 -0.002,-0.021 0,-0.031 a 10.001,10.001 0 0 0 0.0937,-0.75 c 0.009,-0.084 0.0248,-0.1655 0.0312,-0.25 A 10.001,10.001 0 0 0 383,1046.3622 l 0,-410.00002 0,-10 a 10.001,10.001 0 0 0 -10,-10 l -290,0 z m 80,20 17,0 c -42.36997,16.65027 -75.00406,52.66858 -87,97.15625 l 0,-57.15625 c 0.003,-3.68889 2.23128,-7.28882 5.53125,-8.9375 l 60,-30 c 1.38077,-0.69296 2.92386,-1.0595 4.46875,-1.0625 z m 123,0 27,0 c 2.61631,0.005 5.21466,1.08532 7.0625,2.9375 l 40,40 c 1.85218,1.84784 2.9325,4.44619 2.9375,7.0625 l 0,20.75 c -15.91536,-32.14426 -43.3889,-57.54173 -77,-70.75 z m -53,100 c 22.09139,0 40,17.90861 40,40 0,22.09139 -17.90861,40 -40,40 -22.09139,0 -40,-17.90861 -40,-40 0,-22.09139 17.90861,-40 40,-40 z M 93,809.20593 c 12.3105,45.65423 46.34969,82.40023 90.34375,98.4375 13.93603,-8.7343 34.34702,-25.33294 51.40625,-39.125 8.97013,-7.25218 22.77516,-20.7766 34.53125,-32.03125 5.87804,-5.62733 11.25375,-10.69662 15.6875,-14.4375 2.21688,-1.87044 4.12853,-3.40014 6.28125,-4.71875 1.07636,-0.65931 2.14589,-1.31247 4.125,-1.875 0.49478,-0.14063 1.15793,-0.2895 1.9375,-0.375 2.32946,-0.25537 5.68204,0.0669 8.59375,2.8125 l 0.0312,0.0312 c 4.37488,4.15964 3.41539,8.20068 3.09375,10.03125 -0.32164,1.83057 -0.77369,2.95635 -1.28125,4.15625 -1.01513,2.39979 -2.33289,4.80036 -3.96875,7.59375 -3.27172,5.58678 -7.83566,12.51576 -12.84375,19.96875 -10.01618,14.90598 -21.89927,31.87096 -27.6875,41.03125 -3.26988,5.1748 -5.93114,9.42175 -8.875,14.09375 47.77295,-7.06445 87.9545,-37.43928 108.625,-79.1875 l 0,140.75001 c -0.11089,12.2488 -6.5274,27.14626 -17.0625,37.03116 -5.29255,4.5209 -11.66076,7.8078 -18.71875,9.9063 -7.0056,2.0829 -14.62332,3.0625 -22.78125,3.0625 -3.63677,0 -7.73999,-0.1483 -12.375,-0.4375 -4.93249,-0.3078 -9.78104,-0.9623 -14.5625,-1.9375 -4.47716,-0.9143 -8.006,-5.2429 -8,-9.8125 l 0,-7.8125 -5.40625,0 c -1.92206,2.5812 -4.08751,4.9437 -6.53125,7.0312 -5.29255,4.5209 -11.66076,7.8078 -18.71875,9.9063 -4.02679,1.1972 -8.24742,2.0395 -12.65625,2.5312 -1.02325,0.3481 -2.10644,0.5313 -3.1875,0.5313 l -6.90625,0 -2.8125,0 -110.28125,0 c -2.61792,-3e-4 -5.21135,-1.0864 -7.0625,-2.9375 -1.851149,-1.8512 -2.93723,-4.4446 -2.9375,-7.0625 l 0,-1.0938 0,-83.15617 0,-122.90625 z m 205.40625,15.8125 c -5.72775,0.75521 -38.76287,36.25896 -57.34375,51.28125 -19.49469,15.76109 -51.94382,40.05438 -58.78125,43.5 -6.83743,3.44562 1.34663,4.68752 7.03125,3.5625 5.68462,-1.12502 9.65422,-1.47866 14.71875,-1.78125 4.8222,-0.28794 9.01967,-0.43741 12.65625,-0.4375 7.22697,8e-5 14.00653,0.73747 20.34375,2.3125 5.17517,-8.19163 11.12584,-17.61051 17.75,-28.09375 12.21325,-19.32834 47.33461,-67.25465 44.25,-70.1875 -0.14459,-0.13748 -0.34331,-0.19339 -0.625,-0.15625 z M 216.6875,931.17468 c -3.35941,8e-5 -7.38235,0.12679 -12.0625,0.40625 -4.68019,0.27963 -9.17872,0.82431 -13.5,1.625 l 0,80.99997 c 4.32128,0.8813 8.7075,1.4705 13.1875,1.75 4.47995,0.2796 8.42185,0.4063 11.78125,0.4063 7.3608,0 13.98579,-0.8648 19.90625,-2.625 5.92035,-1.7603 10.94256,-4.4182 15.0625,-7.9375 4.1198,-3.5193 7.29118,-7.95241 9.53125,-13.31251 2.23991,-5.3601 3.37492,-11.644 3.375,-18.8438 -8e-5,-7.522 -1.13509,-13.9523 -3.375,-19.31246 -2.24007,-5.36004 -5.43367,-9.77873 -9.59375,-13.21875 -4.16022,-3.43986 -9.13678,-5.9633 -14.9375,-7.5625 -5.80083,-1.59904 -12.2559,-2.37492 -19.375,-2.375 z m 88.34375,0 c -3.3594,8e-5 -7.3511,0.12679 -12.03125,0.40625 -4.6802,0.27963 -9.20998,0.82431 -13.53125,1.625 l 0,80.99997 c 4.32127,0.8813 8.73876,1.4705 13.21875,1.75 4.47996,0.2796 8.39059,0.4063 11.75,0.4063 7.3608,0 14.01704,-0.8648 19.9375,-2.625 5.92035,-1.7603 10.94256,-4.4182 15.0625,-7.9375 4.1198,-3.5193 7.29118,-7.95241 9.53125,-13.31251 2.23991,-5.3601 3.34366,-11.644 3.34375,-18.8438 -9e-5,-7.522 -1.10384,-13.9523 -3.34375,-19.31246 -2.24007,-5.36004 -5.43367,-9.77873 -9.59375,-13.21875 -4.16022,-3.43986 -9.13678,-5.9633 -14.9375,-7.5625 -5.80083,-1.59904 -12.28715,-2.37492 -19.40625,-2.375 z M 103,932.11218 l 0,83.15622 18.71875,0 0,-35.28121 31.4375,0 0,35.28121 18.71875,0 0,-83.15622 -18.71875,0 0,31.8125 -31.4375,0 0,-31.8125 -18.71875,0 z m 114.65625,15 c 9.36031,7e-5 16.17988,2.23884 20.5,6.71875 4.32001,4.48004 6.49994,11.09176 6.5,19.81246 -6e-5,8.3179 -2.26105,14.8421 -6.78125,19.5625 -4.52032,4.7205 -11.48344,7.06251 -20.84375,7.06251 -1.59915,0 -2.96536,-0.023 -4.125,-0.062 -1.1597,-0.04 -2.18118,-0.076 -3.0625,-0.1562 l 0,-52.56252 c 1.20114,-0.15863 2.48386,-0.2722 3.84375,-0.3125 1.35983,-0.0402 2.68942,-0.0624 3.96875,-0.0625 z m 88.34375,0 c 9.3603,7e-5 16.21113,2.23884 20.53125,6.71875 4.32,4.48004 6.46869,11.09176 6.46875,19.81246 -6e-5,8.3179 -2.26104,14.8421 -6.78125,19.5625 -4.52031,4.7205 -11.45219,7.06251 -20.8125,7.06251 -1.59916,0 -2.96537,-0.023 -4.125,-0.062 -1.1597,-0.04 -2.18118,-0.076 -3.0625,-0.1562 l 0,-52.56252 c 1.20115,-0.15863 2.4526,-0.2722 3.8125,-0.3125 1.35983,-0.0402 2.68941,-0.0624 3.96875,-0.0625 z" id="rect4069-8-9" style="font-size:medium;font-style:normal;font-variant:normal;font-weight:normal;font-stretch:normal;text-indent:0;text-align:start;text-decoration:none;line-height:125%;letter-spacing:0;word-spacing:0;text-transform:none;direction:ltr;block-progression:tb;writing-mode:lr-tb;text-anchor:start;baseline-shift:baseline;color:#000000;fill:#222222;fill-opacity:1;fill-rule:nonzero;stroke:none;stroke-width:20;marker:none;visibility:visible;display:inline;overflow:visible;enable-background:accumulate;font-family:Ubuntu;-inkscape-font-specification:Ubuntu"/></g></g></g></g></svg>