<?xml version="1.0" encoding="UTF-8"?><svg id="Layer_2" xmlns="http://www.w3.org/2000/svg" viewBox="0 0 174.1 122.46"><defs><style>.cls-1{fill:#1d63ed;stroke-width:0px;}</style></defs><g id="Layer_1-2"><path class="cls-1" d="m150.54,44.31c-.9-6.62-4.54-12.37-11.16-17.56l-3.81-2.57-2.54,3.86c-3.39,5.53-4.91,12.01-4.34,18.47.33,3.59,1.47,7.05,3.34,10.13-4.07,2.08-8.6,3.09-13.17,2.93H.67l-.23,1.37c-1.11,6.64-1.1,27.36,12.19,43.28,10.09,12.1,25.22,18.24,45,18.24,42.8,0,74.48-20,89.32-56.26,5.83.12,18.4,0,24.85-12.44.16-.28.56-1.05,1.68-3.41l.62-1.29-3.62-2.45c-3.92-2.67-12.94-3.64-19.89-2.3h-.05ZM95.17,0h-18v16.55h18V0Zm0,19.86h-18v16.55h18v-16.55Zm-21.24,0h-18v16.55h18v-16.55Zm-21.24,0h-18v16.55h18v-16.55Zm-21.24,19.87H13.45v16.55h18v-16.55Zm21.24,0h-18v16.55h18v-16.55Zm21.24,0h-18v16.55h18v-16.55Zm21.24,0h-18v16.55h18v-16.55Zm21.24,0h-18v16.55h18v-16.55Z"/></g></svg>